# xmcd CD database file
#
# Track frame offsets:
#	150
#	13817
#	31373
#	53872
#	68147
#	84489
#	97321
#	113779
#	128142
#	141239
#	154359
#	168127
#	183391
#	199112
#	217492
#	235264
#
# Disc length: 3318 seconds
#
# Revision: 0
# Processed by: cddbd v1.5.1PL0 Copyright (c) Steve Scherf et al.
# Submitted via: NeoAudio 9.9.9
#
DISCID=ed0cf410
DTITLE=Dave Sheriff - Singalongadance 2
DYEAR=1900
DGENRE=Country
TTITLE0=pretend
TTITLE1=walkin after midnight
TTITLE2=the power of love
TTITLE3=jambalaya
TTITLE4=he'll have to go
TTITLE5=crazy little thig called love
TTITLE6=rose marie
TTITLE7=never be anyone else
TTITLE8=boogie woogie bugle boy
TTITLE9=love l;etters in the sand
TTITLE10=oh carol
TTITLE11=save the last dance for me
TTITLE12=she's not you
TTITLE13=don't close your eyes
TTITLE14=becausee of love
TTITLE15=teenager in love
EXTD=
EXTT0=
EXTT1=
EXTT2=
EXTT3=
EXTT4=
EXTT5=
EXTT6=
EXTT7=
EXTT8=
EXTT9=
EXTT10=
EXTT11=
EXTT12=
EXTT13=
EXTT14=
EXTT15=
PLAYORDER=
